<svg width="261" height="279" viewBox="0 0 261 279" fill="none" xmlns="http://www.w3.org/2000/svg">
<path d="M328.226 210.991L307.067 173.963V153.483C307.067 150.455 304.612 148 301.583 148H213.85C210.822 148 208.367 150.455 208.367 153.483V173.963L187.157 211.058C186.677 211.891 186.428 212.839 186.434 213.8V323.466C186.434 326.494 188.889 328.95 191.917 328.95H323.517C326.545 328.95 329 326.494 329 323.466V213.8C329.003 212.812 328.735 211.84 328.226 210.991ZM314.068 208.317H289.099L301.583 186.472L314.068 208.317ZM219.334 158.967H296.1V169.933H219.334V158.967ZM217.031 180.9H292.151L276.469 208.317H201.349L217.031 180.9ZM274.167 317.983H197.4V219.283H274.167V317.983ZM318.033 317.983H285.133V219.283H318.033V317.983Z" fill="#C40044"/>
<path d="M174.918 73.733C175.288 72.97 175.475 72.1319 175.467 71.2832V32.8999H197.4V71.2832C197.392 72.1319 197.58 72.97 197.949 73.733L230.849 139.533L240.665 134.633L208.367 69.99V5.48332C208.367 2.45518 205.912 0 202.884 0H169.984C166.956 0 164.501 2.45518 164.501 5.48332V69.99L132.176 134.633C131.796 135.394 131.601 136.232 131.601 137.083V323.516C131.601 326.544 134.056 328.999 137.084 328.999H175.467V318.033H142.567V138.376L174.918 73.733ZM197.4 10.9666V21.9333H175.467V10.9666H197.4Z" fill="#C40044"/>
<path d="M115.151 109.667C115.151 98.2883 110.709 87.3591 102.776 79.201C114.904 74.2505 128.819 76.9868 138.171 86.165L145.847 78.3362C131.788 64.5262 110.23 61.8327 93.2068 71.7552C79.6537 63.8783 62.9226 63.8461 49.3402 71.6722C35.7577 79.5009 27.3962 93.991 27.4176 109.667V131.601H5.4843C2.45616 131.601 0.000976562 134.056 0.000976562 137.084V323.517C0.000976562 326.545 2.45616 329 5.4843 329H120.634V318.034H54.8342V142.567H71.2842V164.5H82.2508V142.567H120.634V131.601H115.151V109.667ZM31.9799 287.573C30.9036 286.135 29.2141 285.289 27.4176 285.289C25.6211 285.289 23.9316 286.135 22.8553 287.573L10.9676 305.423V155.178L22.8553 173.009C23.8727 174.535 25.5836 175.451 27.4176 175.451C29.2516 175.451 30.9625 174.535 31.9799 173.009L43.8676 155.178V305.423L31.9799 287.573ZM39.1071 318.034H15.728L27.4176 300.486L39.1071 318.034ZM27.4176 160.115L15.728 142.567H39.1071L27.4176 160.115ZM38.3842 131.601V109.667C38.3709 98.7166 43.814 88.4783 52.9011 82.3631C61.9856 76.2505 73.5198 75.0645 83.6591 79.201C75.726 87.3591 71.2842 98.2883 71.2842 109.667V131.601H38.3842ZM82.2508 109.667C82.2562 100.328 86.2455 91.4341 93.2175 85.2172C100.189 91.4341 104.179 100.328 104.184 109.667V131.601H82.2508V109.667Z" fill="#C40044"/>
</svg>
